<?xml version="1.0" encoding="iso-8859-1"?>
<!-- Uploaded to: SVG Repo, www.svgrepo.com, Generator: SVG Repo Mixer Tools -->
<svg height="800px" width="800px" version="1.1" id="Layer_1" xmlns="http://www.w3.org/2000/svg" xmlns:xlink="http://www.w3.org/1999/xlink" 
	 viewBox="0 0 512 512" xml:space="preserve">
<path style="fill:#748993;" d="M433.231,77.363H289.758c-23.268,0-42.198,18.929-42.198,42.198v67.516h16.879V119.56
	c0-13.96,11.357-25.319,25.319-25.319h143.473c4.661,0,8.44-3.778,8.44-8.44S437.892,77.363,433.231,77.363z"/>
<path style="fill:#414D53;" d="M289.758,181.451c0-9.284-7.596-16.879-16.879-16.879H256l-11.253,56.264h45.011V181.451z"/>
<path style="fill:#57676E;" d="M239.121,164.571c-9.284,0-16.879,7.596-16.879,16.879v39.385H256v-56.264H239.121z"/>
<path style="fill:#748993;" d="M393.846,198.33v236.308c65.255,0,118.154-52.899,118.154-118.154S459.101,198.33,393.846,198.33z"/>
<path style="fill:#A2B1B7;" d="M478.242,316.484c0-65.255-37.786-118.154-84.396-118.154H118.154C52.899,198.33,0,251.229,0,316.484
	s52.899,118.154,118.154,118.154c42.56,0,79.86-22.507,100.659-56.264h74.374c20.8,33.757,58.099,56.264,100.659,56.264
	C440.456,434.637,478.242,381.738,478.242,316.484z"/>
<polygon style="fill:#E0315B;" points="151.912,299.604 140.659,316.484 151.912,333.363 185.67,333.363 185.67,299.604 "/>
<polygon style="fill:#EA5A7D;" points="135.033,299.604 135.033,248.967 101.275,248.967 101.275,299.604 50.637,299.604 
	50.637,333.363 101.275,333.363 101.275,384 135.033,384 135.033,333.363 151.912,333.363 151.912,299.604 "/>
<path style="fill:#414D53;" d="M264.44,324.923H247.56c-4.661,0-8.44-3.778-8.44-8.44s3.779-8.44,8.44-8.44h16.879
	c4.661,0,8.44,3.778,8.44,8.44S269.1,324.923,264.44,324.923z"/>
<g>
	<circle style="fill:#FEEB5C;" cx="393.846" cy="367.121" r="16.879"/>
	<circle style="fill:#FEEB5C;" cx="393.846" cy="265.846" r="16.879"/>
	<circle style="fill:#FEEB5C;" cx="343.209" cy="316.484" r="16.879"/>
	<circle style="fill:#FEEB5C;" cx="444.484" cy="316.484" r="16.879"/>
</g>
</svg>